<?xml version="1.0" encoding="UTF-8" standalone="no"?>
<!-- Created with Inkscape (http://www.inkscape.org/) -->

<svg
   width="14.570513mm"
   height="14.570518mm"
   viewBox="0 0 14.570513 14.570518"
   version="1.1"
   id="svg1"
   xmlns="http://www.w3.org/2000/svg"
   xmlns:svg="http://www.w3.org/2000/svg">
  <defs
     id="defs1" />
  <g
     id="layer4"
     style="display:inline"
     transform="translate(-39.907865,-85.183317)">
    <path
       id="rect8-6-1-1-0"
       style="fill:#ffffff;stroke-width:0.773332;paint-order:fill markers stroke"
       transform="rotate(135)"
       d="m 31.514582,-93.470474 h 1 v 3 h -1 z m 0,-13.570516 h 1 v 3 h -1 z m 5.785253,8.78526 v -1 h 3 v 1 z m -13.570509,0 v -1 h 3 v 1 z m 12.376049,-3.88369 -0.707107,-0.7071 1.414214,-1.41422 0.707107,0.70711 z m -0.707107,7.474482 0.707107,-0.707107 1.414214,1.414214 -0.707107,0.707107 z m -8.888693,-8.888692 0.707107,-0.70711 1.414214,1.41422 -0.707107,0.7071 z m 0.707106,10.302906 -0.707106,-0.707106 1.414213,-1.414214 0.707107,0.707107 z" />
  </g>
  <g
     id="layer3"
     transform="translate(-50.714746,-83.214742)"
     style="display:none">
    <path
       id="rect8-9-5"
       style="fill:#ffffff;stroke-width:1.09365;paint-order:fill markers stroke"
       transform="rotate(90)"
       d="m 93,-60.999992 h 1 v 6 H 93 Z M 92,-62 h 1 v 1 h -1 z m 0,7 h 1 v 1 h -1 z m -5,-4 v -1 h 5 v 1 z m 0,3 v -1 h 5 v 1 z" />
  </g>
</svg>
